<svg xmlns="http://www.w3.org/2000/svg" width="262" height="152" viewBox="0 0 262 152">
    <g fill="none" fill-rule="evenodd">
        <path fill="#EA1D2D" d="M252.13.429c-.98-.252-2-.402-3.057-.418-.073 0-.144-.011-.218-.011H13.145c-.074 0-.145.011-.22.011A13.019 13.019 0 0 0 9.869.43C4.217 2.087 0 8.496 0 16.167v117.662c0 7.67 4.217 14.08 9.87 15.738.98.254 2.001.404 3.055.422.075 0 .146.011.22.011h235.71c.074 0 .145-.011.218-.011a13.01 13.01 0 0 0 3.058-.422c5.652-1.659 9.869-8.067 9.869-15.738V16.167c0-7.671-4.217-14.08-9.87-15.738"/>
        <path fill="#FFF" d="M229 92.778V38H54.102C43.017 38 34 47.069 34 58.217V113h174.898C220 113 229 103.947 229 92.778"/>
        <path fill="#005DA6" d="M78.498 48C76.312 48 75 49.861 75 52.446v20.109C75 75.14 76.312 77 78.498 77 80.686 77 82 75.14 82 72.555V52.446C82 49.861 80.686 48 78.498 48M95.78 56.006H94.09v-1.16c0-1.216.677-1.713 2.578-1.513 1.905.203 2.331-1.086 2.331-2.138 0-.81-.186-1.258-.817-1.918-1.262-1.317-4.468-1.274-4.468-1.274s-2.88-.144-4.857 1.477c-1.973 1.621-1.834 4.479-1.834 4.479v2.047h-.3c-1.318 0-2.724.814-2.724 2.536 0 1.724 1.603 2.534 2.885 2.534h.14v12.007c0 2.063 1.21 3.917 3.648 3.917 2.44 0 3.418-1.816 3.418-3.827V61.076h1.688c.962 0 2.847-.475 2.847-2.45 0-1.973-1.475-2.62-2.847-2.62M106.356 66.083c0-4.766 2.289-5.597 3.822-5.597.07 0 .14.001.208.005 1.735.087 3.156 1.315 3.156 5.794 0 4.414-1.492 5.289-3.064 5.369-.087.003-.171.007-.262.007-1.752 0-3.86-.812-3.86-5.578M117.27 55c-1.217 0-2.178.512-2.82 1.366A7.862 7.862 0 0 0 109.97 55C102.346 55 99 60.825 99 66.367 99 72.38 103.05 77 109.978 77c1.627 0 3.16-.572 4.435-1.422.641.889 1.614 1.422 2.857 1.422 2.332 0 3.73-1.866 3.73-4.449V59.45c0-2.584-1.398-4.449-3.73-4.449M57.158 65.17L60 55.935l2.843 9.235h-5.684zm15.424 6.08c-.41-1.191-6.82-19.437-7.153-20.291-.334-.855-.648-1.493-1.4-2.049-1.283-.952-4.03-.91-4.03-.91s-2.743-.042-4.024.91c-.754.556-1.07 1.194-1.406 2.049-.33.854-6.742 19.1-7.152 20.29-.409 1.189-.686 2.582 0 3.718.69 1.13 1.906 2.033 3.493 2.033 1.588 0 3.03-.677 3.626-2.63.593-1.95.89-2.916.89-2.916h9.148s.298.966.892 2.917C66.062 76.323 67.503 77 69.091 77c1.586 0 2.804-.903 3.491-2.033.687-1.136.41-2.53 0-3.718z"/>
        <path fill="#EA1D2D" d="M153.99 55c-3.959 0-7.834 5.422-9.194 7.536.072-.534.19-1.22.388-2.064.319-1.4.515-3.317-.386-4.478-.517-.66-1.319-.994-2.389-.994-3.665 0-7.28 4.784-8.831 7.118.19-.709.406-1.531.539-2.082.263-1.087.711-2.905-.034-3.943-.435-.608-1.19-.912-2.25-.912-1.71 0-3.637.801-3.719.84l-.42.16.38.224c.003.003.525.495.12 3.375-.694 4.98-2.312 10.95-2.975 13.283-.355 1.251-.277 2.233.226 2.92.487.655 1.37 1.017 2.497 1.017 1.616 0 3.049-.579 3.109-.603l.252-.101-.155-.231c-.009-.009-.82-1.266.232-3.654 3.665-8.314 6.613-11.624 7.44-12.2.168-.116.329-.18.446-.18.087 0 .127.034.149.059.071.083.1.248.078.457-.312 2.868-1.491 7.753-2.27 10.986-.168.69-.316 1.295-.427 1.78-.296 1.262-.197 2.215.283 2.837.438.563 1.19.85 2.23.85 1.641 0 3.095-.598 3.16-.626l.268-.116-.183-.226c-.008-.012-.807-1.071.29-3.645 2.737-6.443 6.394-11.426 7.35-12.136.311-.227.484-.264.56-.264.053 0 .091.016.118.054.096.117.121.407.063.706-.027.134-.112.542-.24 1.138-.47 2.198-1.44 6.768-1.993 9.917-.334 1.921-.145 3.33.565 4.197.547.666 1.385 1.001 2.49 1.001 1.823 0 3.574-1.172 3.645-1.222l.23-.158-.204-.19c-.015-.012-1.33-1.288-.672-5.018.437-2.488 1.029-5.363 1.46-7.461.219-1.055.39-1.89.478-2.36l.041-.228c.217-1.113.616-3.19-.379-4.42-.503-.623-1.3-.943-2.366-.943M165.38 72.02c-.555 0-.844-.978-.844-1.943 0-1.087.552-7.28 3.182-10.454.57-.688 1.223-1.039 1.945-1.039 1.647 0 3.227 1.792 3.602 2.245-2.023 4.149-4.846 8.488-6.888 10.586-.382.397-.725.605-.996.605m11.704-16.785c-1.152 0-2.054.308-2.685.914A8.038 8.038 0 0 0 170.285 55c-1.13 0-2.882.257-4.822 1.47-2.12 1.333-3.945 3.49-5.427 6.415-3.338 6.612-1.754 11.423-.94 12.587.728 1.027 1.784 1.528 3.236 1.528 2.025 0 4.861-.873 9.035-7.495-.118.902-.259 2.238-.259 3.342 0 3.631 2.514 4.025 3.596 4.025 2.675 0 3.607-1.25 3.642-1.301l.11-.156-.134-.131c-.016-.017-1.257-1.327-.453-8.053.765-6.413 3-10.847 3.023-10.893l.108-.211-.218-.09c-.075-.035-1.874-.802-3.697-.802M198.126 55c-3.01 0-6.577 4.914-8.082 7.209.24-1.008.569-2.458.85-3.778.221-1.01.106-1.797-.336-2.332-.469-.58-1.283-.86-2.482-.86-1.681 0-3.747.724-3.835.754l-.303.11.212.244c.007.007.637.777.236 3.541-.44 2.987-2.33 10.42-3.178 13.392-.336 1.186-.266 2.105.214 2.736.676.881 1.973.984 2.893.984 1.537 0 3.097-.579 3.164-.598l.259-.1-.153-.232c-.005-.009-.737-1.168.118-3.344 2.265-5.75 4.817-9.083 6.315-10.194.368-.271.727-.41 1.067-.41.847 0 1.346.88 1.353.885l.138.252.21-.198c.8-.767 2.198-2.451 2.755-3.957.327-.885.777-2.51.128-3.43-.312-.448-.832-.674-1.543-.674M214.698 57.645c-.825.308-2.85.483-5.556.483-.306 0-.561-.004-.735-.007.158-.7.618-2.692 1.145-4.527.345-1.202.29-2.117-.162-2.72-.44-.59-1.231-.874-2.422-.874-1.61 0-4.005.789-4.105.823l-.346.114.26.255c.956.937-.013 5.445-.465 7.11-.024.089-2.312 9.041-2.312 13.333 0 3.561 1.902 5.365 5.656 5.365 1.76 0 4.256-.526 5.987-2.015.75-.645 1.057-1.52.888-2.53a3.906 3.906 0 0 0-.478-1.32l-.14-.225-.191.176c-.009.009-.822.735-2.335 1.277-.583.207-1.067.308-1.479.308-.533 0-.94-.166-1.32-.538-.9-.882-.316-4.077-.126-5.127.287-1.577.973-4.623 1.143-5.364a60.363 60.363 0 0 1 3.218 0c3.21.076 4.126-2.45 4.165-3.784l.012-.327-.302.114z"/>
        <path fill="#FFD200" d="M205.315 98.688H47V102h158.315c4.874 0 8.915-3.463 9.685-8a12.264 12.264 0 0 1-9.685 4.688"/>
        <path fill="#EA1D2D" d="M215 85.814V83H56.812C51.395 83 47 87.559 47 93.184V96h158.19c5.419 0 9.81-4.562 9.81-10.186"/>
    </g>
</svg>
